# xmcd
#
# Track frame offsets:
# 150
# 14397
# 35857
# 54520
# 70900
# 89942
# 111530
# 124067
# 146515
# 163562
#
# Disc length: 2380 seconds
#
#
# Revision: 0
# Processed by: cddbd v1.5PL3 Copyright (c) Steve Scherf et al.
# Submitted via: FreeRIP 2.00 
#
DISCID=96094a0a
DTITLE=Celeste Carballo - Libre Acceso
DYEAR=1900
DGENRE=Rock
TTITLE0=Querido Coronel Pringles
TTITLE1=Que suerte que viniste
TTITLE2=Una cancion diferente
TTITLE3=Me vuelvo cada dia mas loca
TTITLE4=Mi voz renacera
TTITLE5=Es la vida que me alcanza
TTITLE6=Ahora me quedo mas tranquila
TTITLE7=Adonde van
TTITLE8=Ahora estoy en libertad
TTITLE9=El ultimo blues
EXTD=
EXTT0=
EXTT1=
EXTT2=
EXTT3=
EXTT4=
EXTT5=
EXTT6=
EXTT7=
EXTT8=
EXTT9=
PLAYORDER=
